<?xml version="1.0" encoding="UTF-8"?>
<svg version="1.1" viewBox="0 0 448 512" xmlns="http://www.w3.org/2000/svg" xmlns:xlink="http://www.w3.org/1999/xlink">
  <!--Generated by IJSVG (https://github.com/iconjar/IJSVG)-->
  <path d="M436,124h-424c-6.627,0 -12,-5.373 -12,-12v-32c0,-6.627 5.373,-12 12,-12h424c6.627,0 12,5.373 12,12v32c0,6.627 -5.373,12 -12,12Zm0,160h-424c-6.627,0 -12,-5.373 -12,-12v-32c0,-6.627 5.373,-12 12,-12h424c6.627,0 12,5.373 12,12v32c0,6.627 -5.373,12 -12,12Zm0,160h-424c-6.627,0 -12,-5.373 -12,-12v-32c0,-6.627 5.373,-12 12,-12h424c6.627,0 12,5.373 12,12v32c0,6.627 -5.373,12 -12,12Z" fill="#000"></path>
</svg>
